<?xml version="1.0" encoding="UTF-8"?>
<svg width="32px" height="32px" viewBox="0 0 32 32" version="1.1" xmlns="http://www.w3.org/2000/svg" xmlns:xlink="http://www.w3.org/1999/xlink">
    <g id="Page-1" stroke="none" stroke-width="1" fill="none" fill-rule="evenodd">
        <g id="cv" fill="#D1D1D6" fill-rule="nonzero">
            <path d="M23.8995088,16.7456063 C22.9126237,15.7587212 21.6162183,15.2652476 20.3198128,15.2652476 C19.0234075,15.2652476 17.7270643,15.7587212 16.7401169,16.7456063 C14.7662847,18.7195009 14.7662847,21.9311033 16.7401169,23.9049357 C18.7139493,25.878768 21.9256764,25.878768 23.8994464,23.9049357 C25.8733411,21.9311033 25.8733411,18.7195009 23.8995088,16.7456063 Z" id="Path"></path>
            <path d="M20.3198128,27.2557661 C18.5442183,27.2557661 16.7686237,26.5798987 15.4168889,25.2281637 C12.7134191,22.524694 12.7134191,18.125848 15.4168889,15.4223781 C17.0924288,13.7468383 19.4191345,13.1102066 21.5898948,13.5115477 L21.5898948,0 L0.00573879143,0.0120389864 L0.00573879143,30.1156803 L21.5898948,30.1156803 L21.5898948,27.1389941 C21.170464,27.2165303 20.7451696,27.2557661 20.3198128,27.2557661 Z M4.45741911,6.76921637 C4.45741911,5.176577 5.7531384,3.88079532 7.34584016,3.88079532 C8.93854191,3.88079532 10.2342612,5.17651461 10.2342612,6.76921637 L8.36291617,6.76921637 C8.36291617,6.20843665 7.90668227,5.75214035 7.34584016,5.75214035 C6.78499805,5.75214035 6.32876413,6.20837427 6.32876413,6.76921637 L6.32876413,8.24695516 C6.32876413,8.80773489 6.78499805,9.26403119 7.34584016,9.26403119 C7.90668227,9.26403119 8.36291617,8.80779727 8.36291617,8.24695516 L10.2342612,8.24695516 C10.2342612,9.83959455 8.93854191,11.1353762 7.34584016,11.1353762 C5.7531384,11.1353762 4.45741911,9.83965692 4.45741911,8.24695516 L4.45741911,6.76921637 Z M11.0260897,24.7639455 L3.66546589,24.7639455 L3.66546589,22.8926004 L11.0260897,22.8926004 L11.0260897,24.7639455 Z M11.0260897,20.7940117 L3.66546589,20.7940117 L3.66546589,18.9226667 L11.0260897,18.9226667 L11.0260897,20.7940117 Z M11.0260897,16.8241404 L3.66546589,16.8241404 L3.66546589,14.9527953 L11.0260897,14.9527953 L11.0260897,16.8241404 Z M10.5843275,3.87898636 L11.4517583,3.87898636 L12.5770604,3.87898636 L14.0248577,7.83538401 L15.4726549,3.87898636 L16.5979571,3.87898636 L17.4653879,3.87898636 L14.8099493,11.1353762 L13.2397661,11.1353762 L10.5843275,3.87898636 Z" id="Shape"></path>
            <path d="M31.3480233,28.4790643 L27.7551657,24.8862067 L26.9794308,25.6619415 L25.8394697,24.5219805 C25.6523353,24.7676881 25.4471111,25.0039143 25.2227992,25.2282261 C24.9983625,25.4526628 24.7620741,25.6580117 24.5162417,25.8451461 L25.6562651,26.9851696 L24.8805303,27.7609045 L28.4734503,31.3537621 C29.2672748,32.1475868 30.5542612,32.1475868 31.3480857,31.3537621 C32.141848,30.5599376 32.141848,29.2728889 31.3480233,28.4790643 L31.3480233,28.4790643 Z" id="Path"></path>
        </g>
    </g>
</svg>