<?xml version="1.0" encoding="UTF-8"?>
<svg width="32px" height="32px" viewBox="0 0 32 32" version="1.1" xmlns="http://www.w3.org/2000/svg" xmlns:xlink="http://www.w3.org/1999/xlink">
    <g id="Page-1" stroke="none" stroke-width="1" fill="none" fill-rule="evenodd">
        <g id="github-1" fill="#D1D1D6" fill-rule="nonzero">
            <path d="M0,16.4051599 C0,23.6355989 4.584,29.7671111 10.94,31.9288889 C11.74,32.0829052 12.0333333,31.5764553 12.0333333,31.1421572 C12.0333333,30.7536477 12.02,29.7240976 12.0133333,28.3601517 C7.56266667,29.3466884 6.624,26.1650732 6.624,26.1650732 C5.896,24.2766396 4.844,23.7715772 4.844,23.7715772 C3.39466667,22.75729 4.956,22.7781029 4.956,22.7781029 C6.56266667,22.8918808 7.40666667,24.4639567 7.40666667,24.4639567 C8.83333333,26.9656803 11.152,26.2427751 12.0666667,25.8251273 C12.2106667,24.7664391 12.6226667,24.0463089 13.08,23.6369864 C9.52666667,23.227664 5.792,21.8207047 5.792,15.5518265 C5.792,13.7660704 6.412,12.3063848 7.43866667,11.1616694 C7.25866667,10.7481843 6.71866667,9.08453116 7.57866667,6.83117615 C7.57866667,6.83117615 8.91866667,6.39271545 11.9786667,8.50870461 C13.2586667,8.14517073 14.6186667,7.96479133 15.9786667,7.95646612 C17.3386667,7.96479133 18.6986667,8.14517073 19.9786667,8.50870461 C23.0186667,6.39271545 24.3586667,6.83117615 24.3586667,6.83117615 C25.2186667,9.08453116 24.6786667,10.7481843 24.5186667,11.1616694 C25.5386667,12.3063848 26.1586667,13.7660704 26.1586667,15.5518265 C26.1586667,21.8373551 22.4186667,23.2207263 18.8586667,23.6231111 C19.4186667,24.1142981 19.9386667,25.1174851 19.9386667,26.65071 C19.9386667,28.8402385 19.9186667,30.5996315 19.9186667,31.1310569 C19.9186667,31.5598049 20.1986667,32.0718049 21.0186667,31.9080759 C27.42,29.7601735 32,23.6244987 32,16.4051599 C32,7.36953929 24.836,0.0433604336 16,0.0433604336 C7.16,0.0433604336 0,7.36953929 0,16.4051599 Z" id="Path"></path>
        </g>
    </g>
</svg>