<?xml version="1.0" encoding="UTF-8"?>
<svg width="32px" height="32px" viewBox="0 0 32 32" version="1.1" xmlns="http://www.w3.org/2000/svg" xmlns:xlink="http://www.w3.org/1999/xlink">
    <g id="Page-1" stroke="none" stroke-width="1" fill="none" fill-rule="evenodd">
        <g id="linkedin" fill="#D1D1D6" fill-rule="nonzero">
            <path d="M29.1053403,0 L2.89465968,0 C1.296,0 0,1.296 0,2.89465968 L0,29.1052565 C0,30.704 1.296,32 2.89465968,32 L29.1052565,32 C30.704,32 32,30.704 32,29.1052565 L32,2.89465968 C32,1.296 30.704,0 29.1053403,0 Z M9.90215707,27.6309109 C9.90215707,28.0961676 9.52502617,28.4732984 9.05976964,28.4732984 L5.47392671,28.4732984 C5.00867016,28.4732984 4.63153927,28.0961676 4.63153927,27.6309109 L4.63153927,12.5992042 C4.63153927,12.1339476 5.00867016,11.7568168 5.47392671,11.7568168 L9.05976964,11.7568168 C9.52502617,11.7568168 9.90215707,12.1339476 9.90215707,12.5992042 L9.90215707,27.6309109 Z M7.26684817,10.3398534 C5.38546597,10.3398534 3.86027225,8.81465968 3.86027225,6.93327749 C3.86027225,5.05189529 5.38546597,3.52670157 7.26684817,3.52670157 C9.14823036,3.52670157 10.6734241,5.05189529 10.6734241,6.93327749 C10.6734241,8.81465968 9.14831413,10.3398534 7.26684817,10.3398534 Z M28.64168,27.6987644 C28.64168,28.1264921 28.2948691,28.4732984 27.8671413,28.4732984 L24.0192671,28.4732984 C23.5915393,28.4732984 23.2447329,28.1264921 23.2447329,27.6987644 L23.2447329,20.6480419 C23.2447329,19.5962304 23.5532565,16.0389529 20.496,16.0389529 C18.1245655,16.0389529 17.6435603,18.4738011 17.5469739,19.5664921 L17.5469739,27.6987644 C17.5469739,28.1264921 17.2002513,28.4732984 16.7724397,28.4732984 L13.0508901,28.4732984 C12.6231623,28.4732984 12.276356,28.1264921 12.276356,27.6987644 L12.276356,12.5313508 C12.276356,12.103623 12.6231623,11.7568168 13.0508901,11.7568168 L16.7724397,11.7568168 C17.2001676,11.7568168 17.5469739,12.103623 17.5469739,12.5313508 L17.5469739,13.8427644 C18.4263036,12.5231414 19.73311,11.5045864 22.5155183,11.5045864 C28.6769424,11.5045864 28.64168,17.2609005 28.64168,20.4237068 L28.64168,27.6987644 L28.64168,27.6987644 Z" id="Shape"></path>
        </g>
    </g>
</svg>